<svg xmlns="http://www.w3.org/2000/svg" style="display:none">
  <defs>
    <g id="_s" fill="none" stroke="currentColor" stroke-width="1.7" stroke-linecap="round" stroke-linejoin="round"></g>
  </defs>

  <symbol id="i-truck" viewBox="0 0 24 24" fill="none" stroke="currentColor" stroke-width="1.7" stroke-linecap="round" stroke-linejoin="round">
    <path d="M1 4h13v11H1zM14 8h4l3 3v4h-7z"/><circle cx="5.5" cy="18" r="1.7"/><circle cx="17.5" cy="18" r="1.7"/>
  </symbol>
  <symbol id="i-clock" viewBox="0 0 24 24" fill="none" stroke="currentColor" stroke-width="1.7" stroke-linecap="round" stroke-linejoin="round">
    <circle cx="12" cy="12" r="9"/><path d="M12 7v5l3 2"/>
  </symbol>
  <symbol id="i-users" viewBox="0 0 24 24" fill="none" stroke="currentColor" stroke-width="1.7" stroke-linecap="round" stroke-linejoin="round">
    <path d="M16 20v-2a4 4 0 0 0-4-4H6a4 4 0 0 0-4 4v2"/><circle cx="9" cy="7" r="3.2"/><path d="M22 20v-2a4 4 0 0 0-3-3.8M16 4.2a3.2 3.2 0 0 1 0 5.6"/>
  </symbol>
  <symbol id="i-warehouse" viewBox="0 0 24 24" fill="none" stroke="currentColor" stroke-width="1.7" stroke-linecap="round" stroke-linejoin="round">
    <path d="M2 21V8l10-4 10 4v13"/><path d="M6 21v-8h12v8M6 15h12"/>
  </symbol>
  <symbol id="i-shield" viewBox="0 0 24 24" fill="none" stroke="currentColor" stroke-width="1.7" stroke-linecap="round" stroke-linejoin="round">
    <path d="M12 3l8 3v6c0 5-3.5 8-8 9-4.5-1-8-4-8-9V6z"/><path d="M9 12l2 2 4-4"/>
  </symbol>
  <symbol id="i-gear" viewBox="0 0 24 24" fill="none" stroke="currentColor" stroke-width="1.7" stroke-linecap="round" stroke-linejoin="round">
    <circle cx="12" cy="12" r="3"/><path d="M12 2v3M12 19v3M2 12h3M19 12h3M5 5l2 2M17 17l2 2M19 5l-2 2M7 17l-2 2"/>
  </symbol>
  <symbol id="i-headset" viewBox="0 0 24 24" fill="none" stroke="currentColor" stroke-width="1.7" stroke-linecap="round" stroke-linejoin="round">
    <path d="M4 13v-1a8 8 0 0 1 16 0v1"/><rect x="2.5" y="13" width="4" height="6" rx="1.3"/><rect x="17.5" y="13" width="4" height="6" rx="1.3"/><path d="M20 19a4 4 0 0 1-4 3h-2"/>
  </symbol>
  <symbol id="i-check" viewBox="0 0 24 24" fill="none" stroke="currentColor" stroke-width="2.4" stroke-linecap="round" stroke-linejoin="round">
    <path d="M4 12l5 5L20 6"/>
  </symbol>
  <symbol id="i-arrow" viewBox="0 0 24 24" fill="none" stroke="currentColor" stroke-width="1.9" stroke-linecap="round" stroke-linejoin="round">
    <path d="M4 12h15M13 6l6 6-6 6"/>
  </symbol>
  <symbol id="i-phone" viewBox="0 0 24 24" fill="none" stroke="currentColor" stroke-width="1.7" stroke-linecap="round" stroke-linejoin="round">
    <path d="M22 16.9v3a2 2 0 0 1-2.2 2 19.8 19.8 0 0 1-8.6-3 19.5 19.5 0 0 1-6-6 19.8 19.8 0 0 1-3-8.7A2 2 0 0 1 4.1 2h3a2 2 0 0 1 2 1.7c.1 1 .4 1.9.7 2.8a2 2 0 0 1-.5 2.1L8.1 9.9a16 16 0 0 0 6 6l1.3-1.3a2 2 0 0 1 2.1-.4c.9.3 1.8.6 2.8.7a2 2 0 0 1 1.7 2z"/>
  </symbol>
  <symbol id="i-mail" viewBox="0 0 24 24" fill="none" stroke="currentColor" stroke-width="1.7" stroke-linecap="round" stroke-linejoin="round">
    <rect x="2" y="4" width="20" height="16" rx="2"/><path d="M3 6l9 7 9-7"/>
  </symbol>
  <symbol id="i-pin" viewBox="0 0 24 24" fill="none" stroke="currentColor" stroke-width="1.7" stroke-linecap="round" stroke-linejoin="round">
    <path d="M12 22s7-6 7-12a7 7 0 0 0-14 0c0 6 7 12 7 12z"/><circle cx="12" cy="10" r="2.6"/>
  </symbol>
  <symbol id="i-snow" viewBox="0 0 24 24" fill="none" stroke="currentColor" stroke-width="1.7" stroke-linecap="round" stroke-linejoin="round">
    <path d="M12 2v20M4 6l16 12M20 6L4 18"/><path d="M12 5l-2.2 2M12 5l2.2 2M12 19l-2.2-2M12 19l2.2-2"/>
  </symbol>
  <symbol id="i-box" viewBox="0 0 24 24" fill="none" stroke="currentColor" stroke-width="1.7" stroke-linecap="round" stroke-linejoin="round">
    <path d="M21 8l-9-5-9 5 9 5 9-5zM3 8v8l9 5 9-5V8M12 13v8"/>
  </symbol>
  <symbol id="i-hardhat" viewBox="0 0 24 24" fill="none" stroke="currentColor" stroke-width="1.7" stroke-linecap="round" stroke-linejoin="round">
    <path d="M2 18h20v2H2zM4 18v-3a8 8 0 0 1 16 0v3"/><path d="M10 6.5V4.5h4v2"/>
  </symbol>
  <symbol id="i-tractor" viewBox="0 0 24 24" fill="none" stroke="currentColor" stroke-width="1.7" stroke-linecap="round" stroke-linejoin="round">
    <circle cx="7" cy="16" r="4"/><circle cx="18" cy="17" r="3"/><path d="M7 12V7h5l2 5M3 9h4M14 12h4"/>
  </symbol>
  <symbol id="i-factory" viewBox="0 0 24 24" fill="none" stroke="currentColor" stroke-width="1.7" stroke-linecap="round" stroke-linejoin="round">
    <path d="M3 21V10l6 4V10l6 4V6l6 3v12z"/><path d="M3 21h18"/>
  </symbol>
  <symbol id="i-store" viewBox="0 0 24 24" fill="none" stroke="currentColor" stroke-width="1.7" stroke-linecap="round" stroke-linejoin="round">
    <path d="M3 9l1.5-5h15L21 9M3 9h18v3a3 3 0 0 1-6 0 3 3 0 0 1-6 0 3 3 0 0 1-6 0zM5 12v9h14v-9"/>
  </symbol>
  <symbol id="i-bolt" viewBox="0 0 24 24" fill="none" stroke="currentColor" stroke-width="1.7" stroke-linecap="round" stroke-linejoin="round">
    <path d="M13 2 4 14h6l-1 8 9-12h-6z"/>
  </symbol>
  <symbol id="i-thermo" viewBox="0 0 24 24" fill="none" stroke="currentColor" stroke-width="1.7" stroke-linecap="round" stroke-linejoin="round">
    <path d="M14 14V5a2.5 2.5 0 0 0-5 0v9a4.5 4.5 0 1 0 5 0z"/>
  </symbol>
  <symbol id="i-wrench" viewBox="0 0 24 24" fill="none" stroke="currentColor" stroke-width="1.7" stroke-linecap="round" stroke-linejoin="round">
    <path d="M15 6a4 4 0 0 1 4.5 5.2l-9 9a2.1 2.1 0 0 1-3-3l9-9A4 4 0 0 1 15 6z"/>
  </symbol>
  <symbol id="i-star" viewBox="0 0 24 24" fill="none" stroke="currentColor" stroke-width="1.7" stroke-linecap="round" stroke-linejoin="round">
    <path d="M12 3l2.6 5.6L20 9.3l-4 4 1 6-5-2.8L7 19.3l1-6-4-4 5.4-.7z"/>
  </symbol>
  <symbol id="i-chart" viewBox="0 0 24 24" fill="none" stroke="currentColor" stroke-width="1.7" stroke-linecap="round" stroke-linejoin="round">
    <path d="M4 20V4M4 20h16M8 16v-4M12 16V8M16 16v-7"/>
  </symbol>
  <symbol id="i-hands" viewBox="0 0 24 24" fill="none" stroke="currentColor" stroke-width="1.7" stroke-linecap="round" stroke-linejoin="round">
    <path d="M12 11l-2-2a2 2 0 0 0-3 3l5 5 5-5a2 2 0 0 0-3-3z"/><path d="M3 12l4 4M21 12l-4 4"/>
  </symbol>
  <symbol id="i-badge" viewBox="0 0 24 24" fill="none" stroke="currentColor" stroke-width="1.7" stroke-linecap="round" stroke-linejoin="round">
    <circle cx="12" cy="9" r="6"/><path d="M9 14l-1.5 7L12 19l4.5 2L15 14"/>
  </symbol>
  <symbol id="i-doc" viewBox="0 0 24 24" fill="none" stroke="currentColor" stroke-width="1.7" stroke-linecap="round" stroke-linejoin="round">
    <path d="M14 2H6a2 2 0 0 0-2 2v16a2 2 0 0 0 2 2h12a2 2 0 0 0 2-2V8z"/><path d="M14 2v6h6M8 13h8M8 17h6"/>
  </symbol>
  <symbol id="i-dollar" viewBox="0 0 24 24" fill="none" stroke="currentColor" stroke-width="1.7" stroke-linecap="round" stroke-linejoin="round">
    <path d="M12 2v20M17 6.5c0-2-2.2-3-5-3s-5 1.2-5 3.3S9 9.8 12 10.5s5 1.4 5 3.7-2.2 3.3-5 3.3-5-1-5-3"/>
  </symbol>
  <symbol id="i-flatbed" viewBox="0 0 24 24" fill="none" stroke="currentColor" stroke-width="1.7" stroke-linecap="round" stroke-linejoin="round">
    <path d="M2 15h20M2 15v-3h13v3M15 12h4l3 3M6 8h7v4"/><circle cx="6" cy="18" r="1.6"/><circle cx="18" cy="18" r="1.6"/>
  </symbol>
  <symbol id="i-layers" viewBox="0 0 24 24" fill="none" stroke="currentColor" stroke-width="1.7" stroke-linecap="round" stroke-linejoin="round">
    <path d="M12 3l9 5-9 5-9-5zM3 13l9 5 9-5M3 17l9 5 9-5"/>
  </symbol>
  <symbol id="i-heart" viewBox="0 0 24 24" fill="none" stroke="currentColor" stroke-width="1.7" stroke-linecap="round" stroke-linejoin="round">
    <path d="M12 20s-7-4.5-9.2-8.2A5 5 0 0 1 12 6a5 5 0 0 1 9.2 5.8C19 15.5 12 20 12 20z"/>
  </symbol>
</svg>
